<?xml version="1.0" encoding="utf-8"?>
<!-- Generator: Adobe Illustrator 25.0.1, SVG Export Plug-In . SVG Version: 6.00 Build 0)  -->
<svg version="1.1" id="圖層_1" xmlns="http://www.w3.org/2000/svg" xmlns:xlink="http://www.w3.org/1999/xlink" x="0px" y="0px"
	 viewBox="0 0 380 380.2" style="enable-background:new 0 0 380 380.2;" xml:space="preserve">
<style type="text/css">
	.st0{fill:#FF98C9;}
</style>
<g id="圖層_2_1_">
	<g id="圖層_1-2">
		<path class="st0" d="M380,175.2v29.7c-1.2,7.1-1.9,14.2-3.5,21.2c-19.7,88.1-106,145-194.5,128.4c-18.8-3.5-30.7-20.8-27.2-39.7
			c2-10.4,2.3-20.6-1-30.7c-4.6-14.1-14.7-23.2-27.7-29.2c-3.5-1.6-4.6-3.6-4.5-7.4c0.5-9.9,0.6-19.8,0.9-29.6
			c0.1-4.8,0.1-9.6,0.2-14.5c0-2.3,0.7-3.7,3.5-3.4c2.7,0.2,5.4-0.1,8.1-0.9c16.6-4.2,26.3-19.1,25-34.1
			c-1.6-18.1-15.3-30.7-33-30.7c-3.9,0-4.5-1.5-4.6-4.7c-0.6-23.1-2.4-46.1-5.5-69c-0.4-3,0.4-4.5,2.8-6.1
			c10.9-7.3,22.5-13.5,34.5-18.6c29.5-12.3,60.2-18,91.7-10.9c64.2,14.4,106,54.3,127.7,115.9C376.7,152,378.4,163.6,380,175.2z
			 M222,104.6c0.4-17.9-13.8-32.7-31.7-33.1c-0.2,0-0.4,0-0.6,0c-18.1-0.4-33.1,14-33.5,32.1c0,0.2,0,0.5,0,0.7
			c-0.1,17.7,15,32.8,32.8,33C207.2,137.3,221.9,122.7,222,104.6z M308,127.2c0.3-17.8-13.9-32.4-31.7-32.7c-0.3,0-0.6,0-0.8,0
			c-18.1-0.3-32.9,14.2-33.2,32.2c0,0.2,0,0.3,0,0.5c0.1,18.1,14.7,32.7,32.8,33c18.1,0.1,32.8-14.4,32.9-32.5
			C308,127.6,308,127.4,308,127.2z M331.1,213.3c0.2-18.1-14.3-32.9-32.4-33c-0.3,0-0.6,0-0.9,0c-17.7,0.2-32.5,15-32.5,32.8
			c-0.1,18,15.1,33.2,33.1,33.1C316.5,246.1,331.1,231.4,331.1,213.3z M235.5,308.9c18.1,0,32.8-14.6,32.9-32.7
			c0.1-17.9-15.1-33.2-33.1-33.1c-18,0.1-32.9,15.1-32.9,32.9c0,18.2,14.7,32.9,32.9,32.9C235.4,308.9,235.5,308.9,235.5,308.9z"/>
		<path class="st0" d="M0.3,380.2c-0.6-6.7-0.1-13.3-0.3-20c0-1.9,1.1-2.5,2.7-2.9c14.7-4,20.2-11.4,20.4-26.6c0.1-9-1-18.1,0.8-27
			c4-19.9,22.4-37.3,47.8-35.8c20,1.2,38.6,18.4,40.7,39.2c3.4,34-20.6,66.2-55.3,72.5c-0.9,0.1-1.7,0.4-2.5,0.6L0.3,380.2z"/>
		<path class="st0" d="M67.7,201.6c-9.8,0-19.5-0.1-29.3,0.1c-3.9,0.1-4.4-1.7-4.4-4.9c-0.1-30,0.2-60,2.1-90
			c1.5-23.1,3.5-46,8.3-68.7c1.9-8.8,4.3-17.5,8.4-25.7c1.6-3.4,3.8-6.4,6.5-9c5.1-4.7,11.6-4.7,16.7,0c3.7,3.3,5.9,7.5,7.9,12
			c5.3,12.4,7.9,25.5,9.9,38.6c3.4,22.1,5,44.4,6.2,66.7c1.3,25.3,1.4,50.6,1.5,76c0,3.6-1,5-4.8,5C87,201.5,77.4,201.6,67.7,201.6z
			"/>
		<path class="st0" d="M68,223.3c9.8,0,19.5,0,29.3,0c2.5,0,4.1,0.5,4,3.4c-0.4,8-0.7,16-1,24c-0.1,2.9-0.9,3.9-4,2.4
			c-19-9.2-38.1-9.1-57,0.1c-2.7,1.3-3.8,0.9-3.9-2.1c-0.3-8.1-0.6-16.3-1-24.4c-0.1-2.6,1.2-3.4,3.6-3.4
			C48,223.4,58,223.3,68,223.3z"/>
	</g>
</g>
</svg>
