<svg xmlns="http://www.w3.org/2000/svg" viewBox="0 0 383.49 383.65"><g id="圖層_2" data-name="圖層 2"><g id="圖層_1-2" data-name="圖層 1"><path fill="#FF98C9" d="M383.48,176.86V206.8c-1.17,7.13-1.92,14.31-3.5,21.37C360.08,317.06,273.06,374.5,183.71,357.73c-19-3.57-31-21-27.45-40.11,2-10.46,2.33-20.78-1-31-4.67-14.26-14.81-23.4-28-29.45-3.54-1.61-4.68-3.65-4.5-7.42.49-10,.63-19.94.86-29.91.11-4.86.14-9.73.19-14.59,0-2.37.72-3.7,3.57-3.39a23.45,23.45,0,0,0,8.13-.9c16.8-4.22,26.5-19.28,25.19-34.44-1.58-18.27-15.45-31-33.29-31-3.91,0-4.54-1.49-4.63-4.77a667.82,667.82,0,0,0-5.51-69.65c-.39-3,.41-4.58,2.78-6.14A209.9,209.9,0,0,1,154.89,36.2c29.79-12.42,60.73-18.18,92.51-11,64.78,14.56,107,54.76,128.83,117C380.17,153.39,381.84,165.13,383.48,176.86ZM224.07,105.53a32.7,32.7,0,0,0-32.56-33.4,33.11,33.11,0,0,0-33.82,33.09c-.06,17.9,15.1,33.12,33.15,33.26A33.12,33.12,0,0,0,224.07,105.53Zm86.74,22.86a32.5,32.5,0,0,0-32.84-33,33,33,0,0,0-33.46,33,33.54,33.54,0,0,0,33.07,33.28A33,33,0,0,0,310.81,128.39Zm23.3,86.84a33,33,0,0,0-33.53-33.34c-17.89.16-32.75,15.17-32.81,33.15-.07,18.14,15.26,33.48,33.38,33.41A33.21,33.21,0,0,0,334.11,215.23ZM237.69,311.7a33.23,33.23,0,0,0,33.25-32.95c.09-18.11-15.27-33.47-33.41-33.4s-33.25,15.19-33.22,33.17A33.17,33.17,0,0,0,237.69,311.7Z"/><path fill="#FF98C9" d="M.33,383.65c-.62-6.72-.14-13.46-.29-20.18,0-1.94,1.08-2.49,2.68-2.93,14.81-4,20.38-11.49,20.54-26.89.1-9.09-1-18.24.78-27.25,4-20.13,22.63-37.67,48.2-36.13,20.2,1.22,39,18.58,41.11,39.6,3.41,34.27-20.77,66.84-55.83,73.19-.86.15-1.7.37-2.55.56Z"/><path fill="#FF98C9" d="M68.36,203.5c-9.86,0-19.71-.15-29.56.09-3.92.1-4.45-1.67-4.45-4.94-.08-30.31.16-60.59,2.16-90.85C38.05,84.53,40,61.33,44.86,38.48c1.89-8.92,4.29-17.7,8.43-25.89a30.13,30.13,0,0,1,6.52-9.06c5.19-4.7,11.67-4.71,16.88,0,3.7,3.34,6,7.61,8,12.09,5.39,12.47,8,25.69,10,39,3.43,22.31,5,44.79,6.21,67.33,1.33,25.55,1.39,51.1,1.49,76.67,0,3.66-1,5.06-4.84,5C87.82,203.33,78.09,203.5,68.36,203.5Z"/><path fill="#FF98C9" d="M68.59,225.39c9.84,0,19.68,0,29.52,0,2.51,0,4.12.53,4,3.47q-.54,12.12-1,24.26c-.1,2.95-.88,3.93-4,2.41-19.16-9.28-38.41-9.21-57.56.08-2.76,1.34-3.8.87-3.91-2.16q-.45-12.32-1-24.63c-.12-2.64,1.22-3.41,3.68-3.4C48.41,225.44,58.5,225.4,68.59,225.39Z"/></g></g></svg>