<?xml version="1.0" encoding="utf-8"?>
<!-- Generator: Adobe Illustrator 25.0.1, SVG Export Plug-In . SVG Version: 6.00 Build 0)  -->
<svg version="1.1" id="圖層_1" focusable="false" xmlns="http://www.w3.org/2000/svg" xmlns:xlink="http://www.w3.org/1999/xlink"
	 x="0px" y="0px" viewBox="0 0 380 380" style="enable-background:new 0 0 380 380;" xml:space="preserve">
<style type="text/css">
	.st0{fill:#BDAAFF;}
</style>
<path class="st0" d="M261.2,332.5v29.7c0,9.8-8,17.8-17.8,17.8H41.6c-9.8,0-17.8-8-17.8-17.8V89.1c0-9.8,8-17.8,17.8-17.8H95v219.7
	c0,22.9,18.6,41.6,41.6,41.6H261.2z M261.2,77.2V0H136.6c-9.8,0-17.8,8-17.8,17.8v273.1c0,9.8,8,17.8,17.8,17.8h201.9
	c9.8,0,17.8-8,17.8-17.8V95h-77.2C269.3,95,261.2,87,261.2,77.2z M351,54.2L302.1,5.2c-3.3-3.3-7.9-5.2-12.6-5.2H285v71.2h71.2v-4.5
	C356.2,62,354.4,57.5,351,54.2z"/>
</svg>
