<svg xmlns="http://www.w3.org/2000/svg" viewBox="0 0 576.29 512.17"><g id="圖層_2" data-name="圖層 2"><g id="圖層_1-2" data-name="圖層 1"><path fill="#7AE09C" d="M448.83,323.22,449,444.15a5,5,0,0,0,2.15,4.11l86,59.43c16.58,11.47,39.22-.41,39.21-20.58L576.19,281a25,25,0,0,0-39.08-20.65L451,319.08A5,5,0,0,0,448.83,323.22Z"/><path fill="#7AE09C" d="M352.45,0A127.91,127.91,0,0,0,240.33,66.29,127.93,127.93,0,1,0,125.15,255.81v0H367.47c63.57-7.44,112.9-62.36,112.9-127.93A127.92,127.92,0,0,0,352.45,0ZM128.19,193a65.11,65.11,0,1,1,65.11-65.11A65.11,65.11,0,0,1,128.19,193Zm224.26,0a65.11,65.11,0,1,1,65.1-65.11A65.11,65.11,0,0,1,352.45,193Z"/><path fill="#7AE09C" d="M367.37,288.13H12a12,12,0,0,0-12,12v39.12a12,12,0,0,0,12,12H63.09V463.18a48,48,0,0,0,48,48H367.91a48,48,0,0,0,48-48V336.68A48.54,48.54,0,0,0,367.37,288.13Z"/></g></g></svg>