<?xml version="1.0" encoding="utf-8"?>
<!-- Generator: Adobe Illustrator 25.0.1, SVG Export Plug-In . SVG Version: 6.00 Build 0)  -->
<svg version="1.1" id="圖層_1" xmlns="http://www.w3.org/2000/svg" xmlns:xlink="http://www.w3.org/1999/xlink" x="0px" y="0px"
	 viewBox="0 0 380 380" style="enable-background:new 0 0 380 380;" xml:space="preserve">
<style type="text/css">
	.st0{fill:#47D5CE;}
</style>
<g id="圖層_2_1_">
	<g id="圖層_1-2">
		<path class="st0" d="M82.7,231.5l-56.8-38.7c-2.8-1.9-6-2.9-9.3-2.9c-9.1,0-16.5,7.4-16.5,16.5L0,342.3c0,13.3,15,21.2,25.9,13.6
			l56.7-39.2c0.9-0.6,1.4-1.6,1.4-2.7l0.1-79.7C84.1,233.2,83.6,232.2,82.7,231.5z"/>
		<path class="st0" d="M63.3,105.5c0,43.2,32.5,79.4,74.4,84.3h159.8l0,0c30-0.7,57.4-17.4,71.9-43.7c22.4-40.8,7.5-92.1-33.3-114.5
			S244,24.1,221.5,64.9c-14.8-27-43.1-43.7-73.9-43.7C101.1,21.2,63.3,58.9,63.3,105.5z M295.5,148.4c-23.7,0-42.9-19.2-42.9-42.9
			s19.2-42.9,42.9-42.9c23.7,0,42.9,19.2,42.9,42.9S319.2,148.4,295.5,148.4L295.5,148.4z M104.7,105.5L104.7,105.5
			c0-23.7,19.2-42.9,42.9-42.9s42.9,19.2,42.9,42.9s-19.2,42.9-42.9,42.9S104.7,129.2,104.7,105.5z"/>
		<path class="st0" d="M137.8,211.1c-17.7,0-32,14.4-31.9,32v83.4c0,17.4,14.1,31.6,31.6,31.6h169.3c17.4,0,31.6-14.1,31.6-31.6
			v-73.8h33.7c4.4,0,7.9-3.5,7.9-7.9V219c0-4.4-3.5-7.9-7.9-7.9H137.8L137.8,211.1z"/>
	</g>
</g>
</svg>
