<svg xmlns="http://www.w3.org/2000/svg" viewBox="0 0 1090.88 762.89"><g id="圖層_2" data-name="圖層 2"><g id="圖層_1-2" data-name="圖層 1"><path d="M1089.82,582.13c-.16-1.25-2.7-16.92-2.86-18-2.46-16.34-4.86-32.7-7.4-49q-4.27-27.44-8.73-54.83c-3.24-20.23-6.59-40.44-9.76-60.69s-6.12-40.52-9.27-60.77c-2.66-17.15-5.45-34.28-8.19-51.42q-4.35-27.17-8.72-54.33c-.6-3.75-1.35-7.48-1.78-11.25-.31-2.73-3.43-18.47-3.93-20.75-6.92-31.36-20.71-59.33-40.8-84.36-2.43-3-6.85-5.18-6.4-10.15a.57.57,0,0,0-.51-.57c-2.87.39-4.07-2-5.6-3.58a221.25,221.25,0,0,0-67.7-49.21c-11.74-5.46-23.74-10.36-36.32-13.59-2.23-.57-18.63-4.34-19.86-4.66-14.57-3.85-29.3-7-44.11-9.71-18-3.31-36.13-6.47-54.26-9.36-13.71-2.18-27.48-3.94-41.26-5.69S684.8,6.82,671,5.4c-9.38-1-18.82-1.46-28.23-2.18C597-.28,551.09-.4,505.23.42,484.39.79,463.52,1.81,442.72,4c-9.2,1-18.5,1.18-27.73,2.21-15.78,1.77-31.59,3.26-47.34,5.25-16.72,2.12-33.37,4.78-50,7.63-21.53,3.7-43,7.64-64.32,12.37-4,.89-8.08,1.78-12.08,2.83-2.7.71-19.23,4.56-20.85,5A232.85,232.85,0,0,0,162,64.31a229.84,229.84,0,0,0-47.77,38.83c-1.34,1.4-2.5,3.25-4.92,2.91l-1.47,1c0,.22,0,.43,0,.65a10,10,0,0,1-5.1,7.34l0-.13c0,2.76-1.91,4-3.94,5.13l0-.12c.13,2.08-.82,3.14-2.94,3.1h0c-1.42,5.69-4.83,10.1-9,14l-.13-.21c.42,2.21-1,3.86-2,5.5-11,18.21-18.34,37.86-23.23,58.49-.51,2.19-3.35,17.57-3.54,18.78q-4.45,28.41-9,56.8c-3.25,20.4-6.56,40.79-9.76,61.19-3.46,22-6.78,44.1-10.26,66.14S21.74,448,18.26,470.22c-3.2,20.41-6.21,40.84-9.36,61.26q-2.49,16.17-5.26,32.29C3.32,565.57,1.11,580,1,581.18A175,175,0,0,0,.8,616.41a149.66,149.66,0,0,0,16.11,54.5c15.45,29.6,38,52.35,67.07,69,21.1,12.07,43.75,18.82,67.61,22.16,4.26.6,8.65-.48,12.9.79,1.09.33,16.16-.67,17.83-.69,23-.3,45-5.34,66.26-13.89a204.92,204.92,0,0,0,47.82-27.35c1.38-1,2.61-2.07,4.47-1.53l-.13-.05c1-3.57,3-6,7-6-.27-2,1.33-2.85,2.41-4,5.28-5.65,11.35-10.55,15.94-16.87.84-1.16,1.89-2.38,3.67-2.07h0c0-4.42,3.56-7,5.75-10.1a182.39,182.39,0,0,0,19.13-34.83c.66-1.58,6.19-16.23,6.74-17.74,2.19-6.09,4-12.33,6.5-18.28,1.53-3.63,11.24-10.08,12.45-10.07s2.67,0,4,0q161.21,0,322.43,0c2.84,0,15.92,8.62,16.29,9.71,2.19,6.26,4.32,12.54,6.55,18.79.49,1.38,6.17,16.35,7,18.2a174,174,0,0,0,20.93,37.22c1.14,1.5,2.86,2.9,2.61,5.18l0-.09c2.73,2.12,6.13,3.74,6,8,3.28.15,4.65,3,6.41,5,3.57,4,8.63,6.65,10.57,12,.92-.13,1.68,0,2,1l-.13,0a5.23,5.23,0,0,1,5.1,4.93l-.13.05c1.85-.5,3.08.52,4.46,1.57,26.33,20.08,55.73,33.27,88.39,38.94,7.81,1.36,15.71,2.51,23.7,2.31,2.83-.07,18.75.68,20.33.61a174.94,174.94,0,0,0,106.5-41.38,162.91,162.91,0,0,0,41.49-52.29,156.64,156.64,0,0,0,15-87ZM481.49,359.8a12,12,0,0,1-12,12H370.33V471a12,12,0,0,1-12,12H293.71a12,12,0,0,1-12-12V371.8H182.55a12,12,0,0,1-12-12V295.18a12,12,0,0,1,12-12h99.16V184a12,12,0,0,1,12-12h64.62a12,12,0,0,1,12,12v99.16h99.16a12,12,0,0,1,12,12ZM736.7,483a74.24,74.24,0,1,1,74.24-74.24A74.24,74.24,0,0,1,736.7,483ZM846,319a74.24,74.24,0,1,1,74.23-74.24A74.23,74.23,0,0,1,846,319Z"/><path d="M766.11,696.31v0h0Z"/><path d="M307.73,713.27h0v0Z"/><path d="M783.1,713.29v0h0Z"/></g></g></svg>