<?xml version="1.0" encoding="utf-8"?>
<!-- Generator: Adobe Illustrator 25.0.1, SVG Export Plug-In . SVG Version: 6.00 Build 0)  -->
<svg version="1.1" id="圖層_1" xmlns="http://www.w3.org/2000/svg" xmlns:xlink="http://www.w3.org/1999/xlink" x="0px" y="0px"
	 viewBox="0 0 380 380" style="enable-background:new 0 0 380 380;" xml:space="preserve">
<style type="text/css">
	.st0{fill:#43D3FD;}
</style>
<g id="圖層_2_1_">
	<g id="圖層_1-2">
		<path class="st0" d="M379.6,259.9c-0.1-0.4-0.9-5.9-1-6.3c-0.9-5.7-1.7-11.4-2.6-17.1c-1-6.4-2-12.7-3-19.1
			c-1.1-7-2.3-14.1-3.4-21.1c-1.1-7.1-2.1-14.1-3.2-21.2c-0.9-6-1.9-11.9-2.9-17.9c-1-6.3-2-12.6-3-18.9c-0.2-1.3-0.5-2.6-0.6-3.9
			c-0.1-1-1.2-6.4-1.4-7.2c-2.4-10.9-7.2-20.7-14.2-29.4c-0.8-1-2.4-1.8-2.2-3.5c0-0.1-0.1-0.2-0.2-0.2c-1,0.1-1.4-0.7-2-1.2
			c-6.7-7.2-14.7-13-23.6-17.1c-4.1-1.9-8.3-3.6-12.7-4.7c-0.8-0.2-6.5-1.5-6.9-1.6c-5.1-1.3-10.2-2.4-15.4-3.4
			c-6.3-1.2-12.6-2.3-18.9-3.3c-4.8-0.8-9.6-1.4-14.4-2c-4.8-0.6-9.6-1.2-14.4-1.7c-3.3-0.3-6.6-0.5-9.8-0.8C208,57,192,57,176,57.3
			c-7.3,0.1-14.5,0.5-21.8,1.2c-3.2,0.3-6.4,0.4-9.7,0.8c-5.5,0.6-11,1.1-16.5,1.8c-5.8,0.7-11.6,1.7-17.4,2.7
			c-7.5,1.3-15,2.7-22.4,4.3c-1.4,0.3-2.8,0.6-4.2,1c-0.9,0.2-6.7,1.6-7.3,1.7c-7.1,2-14,4.9-20.3,8.7c-6.1,3.7-11.7,8.3-16.6,13.5
			c-0.5,0.5-0.9,1.1-1.7,1l-0.5,0.3c0,0.1,0,0.1,0,0.2c-0.2,1.1-0.8,2-1.8,2.6v0c0,1-0.7,1.4-1.4,1.8v0c0,0.7-0.3,1.1-1,1.1l0,0
			c-0.5,2-1.7,3.5-3.1,4.9l0-0.1c0.1,0.8-0.3,1.3-0.7,1.9c-3.8,6.3-6.4,13.2-8.1,20.4c-0.2,0.8-1.2,6.1-1.2,6.5
			c-1,6.6-2.1,13.2-3.1,19.8c-1.1,7.1-2.3,14.2-3.4,21.3c-1.2,7.7-2.4,15.4-3.6,23c-1.2,7.7-2.5,15.4-3.7,23.2
			c-1.1,7.1-2.2,14.2-3.3,21.3c-0.6,3.8-1.2,7.5-1.8,11.2c-0.1,0.6-0.9,5.7-0.9,6.1c-0.4,4.1-0.5,8.2-0.1,12.3
			c0.6,6.6,2.5,13.1,5.6,19c5.4,10.3,13.2,18.2,23.4,24c7.4,4.2,15.2,6.6,23.6,7.7c1.5,0.2,3-0.2,4.5,0.3c0.4,0.1,5.6-0.2,6.2-0.2
			c8-0.1,15.7-1.9,23.1-4.8c6-2.4,11.6-5.6,16.7-9.5c0.5-0.3,0.9-0.7,1.6-0.5l0,0c0.3-1.2,1-2.1,2.4-2.1c-0.1-0.7,0.5-1,0.8-1.4
			c1.8-2,4-3.7,5.6-5.9c0.3-0.4,0.7-0.8,1.3-0.7l0,0c0-1.5,1.2-2.4,2-3.5c2.7-3.8,4.9-7.9,6.7-12.1c0.2-0.6,2.2-5.7,2.3-6.2
			c0.8-2.1,1.4-4.3,2.3-6.4c0.5-1.3,3.9-3.5,4.3-3.5s0.9,0,1.4,0c37.4,0,74.9,0,112.3,0c1,0,5.5,3,5.7,3.4c0.8,2.2,1.5,4.4,2.3,6.5
			c0.2,0.5,2.1,5.7,2.4,6.3c1.9,4.6,4.3,9,7.3,13c0.4,0.5,1,1,0.9,1.8v0c1,0.7,2.1,1.3,2.1,2.8c1.1,0.1,1.6,1,2.2,1.7
			c1.2,1.4,3,2.3,3.7,4.2c0.3,0,0.6,0,0.7,0.3h0c0.9,0,1.7,0.8,1.8,1.7l0,0c0.6-0.2,1.1,0.2,1.6,0.5c9.2,7,19.4,11.6,30.8,13.6
			c2.7,0.5,5.5,0.9,8.3,0.8c1,0,6.5,0.2,7.1,0.2c13.6-0.5,26.7-5.6,37.1-14.4c6-5,10.9-11.2,14.5-18.2
			C379,280.8,380.8,270.3,379.6,259.9L379.6,259.9z M167.7,182.5c0,2.3-1.9,4.2-4.2,4.2H129v34.6c0,2.3-1.9,4.2-4.2,4.2h-22.5
			c-2.3,0-4.2-1.9-4.2-4.2v-34.6H63.6c-2.3,0-4.2-1.9-4.2-4.2v-22.5c0-2.3,1.9-4.2,4.2-4.2h34.5v-34.5c0-2.3,1.9-4.2,4.2-4.2h22.5
			c2.3,0,4.2,1.9,4.2,4.2v34.5h34.5c2.3,0,4.2,1.9,4.2,4.2V182.5z M256.6,225.4c-14.3,0-25.9-11.6-25.9-25.9s11.6-25.9,25.9-25.9
			c14.3,0,25.9,11.6,25.9,25.9l0,0C282.5,213.8,270.9,225.4,256.6,225.4z M294.7,168.2c-14.3,0-25.9-11.6-25.9-25.9
			c0-14.3,11.6-25.9,25.9-25.9c14.3,0,25.9,11.6,25.9,25.9c0,0,0,0,0,0C320.6,156.7,309,168.2,294.7,168.2
			C294.7,168.2,294.7,168.2,294.7,168.2z"/>
		<path d="M266.9,299.7L266.9,299.7L266.9,299.7z"/>
		<path d="M107.2,305.6L107.2,305.6L107.2,305.6z"/>
		<path d="M272.8,305.6L272.8,305.6L272.8,305.6z"/>
	</g>
</g>
</svg>
