<svg xmlns="http://www.w3.org/2000/svg" viewBox="0 0 30 30"><defs><style>.cls-1{fill:#fff;}</style></defs><g id="圖層_2" data-name="圖層 2"><g id="圖層_1-2" data-name="圖層 1"><path class="cls-1" d="M15.67,21c0,3.11-.68,5.45-1.95,6.91S10.51,30,7.88,30C2.63,30,0,27,0,21.05V13.63a1.46,1.46,0,0,1,1.46-1.46H9.93v1.38A1.94,1.94,0,0,1,8,15.48H4.57a1.46,1.46,0,0,0-1.46,1.46v3.81c0,4.38,1.56,6.53,4.68,6.53a4,4,0,0,0,3.5-1.56c.78-1.07,1.07-2.73,1.07-5V19.49A1.46,1.46,0,0,1,13.82,18h1.85Z"/><path class="cls-1" d="M21,15.67c3.11,0,5.45-.68,6.91-1.95S30,10.51,30,7.88C30,2.63,27,0,21.05,0H13.63a1.46,1.46,0,0,0-1.46,1.46V9.93h1.38A1.94,1.94,0,0,0,15.48,8V4.57a1.46,1.46,0,0,1,1.46-1.46h3.81c4.38,0,6.53,1.56,6.53,4.68a4,4,0,0,1-1.56,3.5c-1.07.78-2.73,1.07-5,1.07H19.49A1.46,1.46,0,0,0,18,13.82v1.85Z"/></g></g></svg>