<svg xmlns="http://www.w3.org/2000/svg" xmlns:xlink="http://www.w3.org/1999/xlink" viewBox="0 0 264.88 266.21"><defs><style>.cls-1{fill:none;}.cls-2{clip-path:url(#clip-path);}.cls-3{fill:#fefbf3;}.cls-4{fill:#f0c4d9;}.cls-5{fill:#fdd37a;}.cls-6{fill:#1d5974;}.cls-7{fill:#f0c5d9;}.cls-8{fill:#9c765b;}.cls-9{fill:#cd4518;}</style><clipPath id="clip-path" transform="translate(-3.01 -4.7)"><circle class="cls-1" cx="135.45" cy="135.45" r="135.45"/></clipPath></defs><g id="圖層_2" data-name="圖層 2"><g id="圖層_1-2" data-name="圖層 1"><g class="cls-2"><path class="cls-3" d="M240.06,221.51a243.75,243.75,0,0,0-13-49.75c-8.22-21.63-16.51-56.51-27.47-76.89-5.72-10.65-21.06-24.2-32-29.4-8.22-3.9-20-8.83-29-8C110,60.1,84.21,78.32,68.55,102.37s-9.41,59-9.32,87.73l-5.09,53.69a135.46,135.46,0,0,0,185.92-22.28Z" transform="translate(-3.01 -4.7)"/><path class="cls-4" d="M31,216.81C19.37,204.27,12.68,189,8.28,173-3.28,130.64,4.18,91.62,30.71,56.59,51,29.82,78.1,13.42,111,7.23,150.67-.22,186.91,8.84,218.22,33.8c26.21,20.89,42.84,48.16,47.91,81.89,2.79,18.62,2.59,36.91-2.93,55-4.67-1.35-5.83-5.55-7.58-9.28,0-2.36,1.73-4.07,2.43-6.17.79-2.42,1.26-4.93-.86-6.87-1.85-1.69-3.78-.47-5.59.43a6.11,6.11,0,0,1-3.84.93c-8-5.29-11.95-14.43-19.47-20.16a2.24,2.24,0,0,1-1-1.69c.48-7.33-3.67-11-10-13.37-2.49-.92-3.08-3.69-4.11-6-2.69-5.88-6.59-10.27-13.7-10.25-4.25,0-5.89-2.86-7-6.18-6.17-18.23-19.31-29.82-36-38.38a38.06,38.06,0,0,0-25.57-3.53c-8.44,1.64-16.86,3.21-24.63,7.11a7.84,7.84,0,0,1-4.6.86C86.51,50.93,80.4,51.89,68.22,64c-3.57,3.52-7.07,5.55-12.5,4.87-6.19-.77-9.23,4.1-6,9.63,2.55,4.36,2.18,7.91-.09,11.93-5.8,10.3-8.25,20.86-2.14,32,.85,6.1-.9,12-1.29,18.06a49.82,49.82,0,0,0,3.09,21.76c1.34,3.39.44,6.08-.47,9.48-2.42,9-6.38,18.16-6.88,27C41.44,207.94,37.15,212.3,31,216.81Z" transform="translate(-3.01 -4.7)"/><path class="cls-5" d="M31,216.81a4.08,4.08,0,0,1,.34-.57c5.06-6.1,8.75-11.84,8.93-21,.14-6.63,2.59-15.12,5.43-21.13,3.51-7.41,1.09-12.31-.37-18.27-2.79-11.37.06-22.54,1-33.78,8.6,2,14.71-2,19.88-8.26,6.64-8,14-15.25,20.36-23.5C94,80.54,99.73,70,101.45,57.66a95.48,95.48,0,0,1,35.46-10c13.36-1.27,23.85,5.55,33.92,12.84,11.39,8.24,19.83,18.81,23.74,32.6.56,2,1.14,4,4.54,3.72,7.49-.52,12.75,3.18,15.36,10.29,1.36,3.72,2.58,6.6,7.28,7.52,3.37.66,6.9,3.42,6.76,7.5-.31,9.21,8.84,12,12.44,18.67,1.45,2.69,5.1,5.21,7,8.44-1.57,5.94-3.57,11.62-9.33,15C229.21,154.19,221.08,143,211.59,133c-2.49-6.42-5.48-11.29-12.78-14.73-5.17-2.42-10.25-6.08-15.8-8.79-14.81-7.21-30.71-6.14-46.32-7.76-13.55-1.42-27.56.51-40.54-5.64-3.8-1.81-3.36,2.38-3.86,4.33a238.57,238.57,0,0,1-18.73,49.06,24.1,24.1,0,0,1-2.16,4.2c-6.46,8.19-9,17.62-9.19,27.84-1.71,4.16-3,8.37-2.42,13a8.62,8.62,0,0,1-.59,3.95c-2.94,7.67-5,15.59-7.33,23.45-2.07,7-4.92,8.26-11.17,7.14C37.56,224.87,32.88,222,31,216.81Z" transform="translate(-3.01 -4.7)"/><path class="cls-4" d="M211.59,133c12,7.64,18.91,19.8,27.37,30.59,1,4.42-3.32,7-3.8,11-.33,2.77-2.49,5.95.41,8.08,3.38,2.49,4.89-1.67,7.21-2.95a3.49,3.49,0,0,1,4.21,1.34c2.71,3.61,6.91,4.92,10.57,7.07-4.74,11.12-10.57,21.56-19.42,31.6C231.64,189.25,219.08,161.92,211.59,133Z" transform="translate(-3.01 -4.7)"/><path class="cls-6" d="M164.33,172.37c-.1,3.15-1.94,6.7-4.87,9.61a49.28,49.28,0,0,1-26.35,13.85c-5.9,1.08-12.09-2-13.54-6.42-1.61-4.9,1-10.6,7.28-12.69,8.42-2.79,15.71-7.45,23.39-11.56C158.36,160.81,164.25,163.73,164.33,172.37Z" transform="translate(-3.01 -4.7)"/><path class="cls-6" d="M100.36,158.78c-7.08.23-11.75-7.08-8.94-14.45a35.21,35.21,0,0,1,13-16.08c6.35-4.51,12.41-2.21,14.6,5.19C121.51,142,109.44,158.49,100.36,158.78Z" transform="translate(-3.01 -4.7)"/><path class="cls-6" d="M175.13,133.24c.22,6.4-8.08,11.66-14.8,9.17a28.54,28.54,0,0,1-11.51-8c-4.7-5.34-3.4-12.31,2.59-15.27C159,115.43,174.85,124.84,175.13,133.24Z" transform="translate(-3.01 -4.7)"/><path class="cls-7" d="M40.7,229c7-.79,12.25-7.45,11.64-16a8.69,8.69,0,0,1,2.14-7.13,15.28,15.28,0,0,0,3.51-12c-.89-5.33.86-8.92,4.22-12.39,0,8.51,1,17.15-.16,25.5-1.64,11.87-1.29,24-4.15,36C50.6,239.93,46.65,233.23,40.7,229Z" transform="translate(-3.01 -4.7)"/><path class="cls-5" d="M257.56,188.13c-7.15,1.45-9.73-5.08-14.3-8.12a15,15,0,0,1,13-18.81l6.92,9.5C263.3,177.15,258,181.84,257.56,188.13Z" transform="translate(-3.01 -4.7)"/><path class="cls-8" d="M101.45,57.66c2.21,14.58-7.19,24.45-14.69,34.88C79.69,102.39,71,111,62.56,119.64c-4.73,4.82-10.08,6.66-16.26,2.43-8.4-11.18-3.4-21.8,1.53-32.3,1.7-3.62,4.34-6.46,0-10.48-2.71-2.51-2.34-6.65.19-9.92a7.31,7.31,0,0,1,9.13-2.48c4,1.93,5.68-.18,7.82-2.58C71.14,57.39,78.11,52,88,51.6,93.63,51.37,98.21,52.89,101.45,57.66Z" transform="translate(-3.01 -4.7)"/><path class="cls-9" d="M256.28,161.2c-8.16,3.65-12.16,10.15-13,18.81-1.52,3.47-3.61,7.09-7.89,5.6-4.46-1.57-2.91-5.81-2.4-9.34.71-4.86,3.19-8.83,6-12.68,3.47-4.49,5-10.2,9-14.32a32,32,0,0,1,3.22-2.36c2.09-1.19,4.24-2.91,6.73-1s2.8,4.39,2.56,7.18C260.22,156.36,257.88,158.59,256.28,161.2Z" transform="translate(-3.01 -4.7)"/></g></g></g></svg>