<?xml version="1.0" encoding="utf-8"?>
<!-- Generator: Adobe Illustrator 25.0.1, SVG Export Plug-In . SVG Version: 6.00 Build 0)  -->
<svg version="1.1" id="圖層_1" xmlns="http://www.w3.org/2000/svg" xmlns:xlink="http://www.w3.org/1999/xlink" x="0px" y="0px"
	 viewBox="0 0 264.9 266.2" style="enable-background:new 0 0 264.9 266.2;" xml:space="preserve">
<style type="text/css">
	.st0{clip-path:url(#SVGID_2_);}
	.st1{fill:#FEFBF3;}
	.st2{opacity:0.8;fill:#F0C4D9;}
	.st3{fill:#FDD37A;}
	.st4{fill:#1D5974;}
	.st5{fill:#F0C5D9;}
	.st6{fill:#9C765B;}
	.st7{fill:#CD4518;}
</style>
<g id="圖層_2_1_">
	<g id="圖層_1-2">
		<g>
			<defs>
				<circle id="SVGID_1_" cx="132.4" cy="130.8" r="135.4"/>
			</defs>
			<clipPath id="SVGID_2_">
				<use xlink:href="#SVGID_1_"  style="overflow:visible;"/>
			</clipPath>
			<g class="st0">
				<path class="st1" d="M237.1,216.8c-2.6-17-6.9-33.7-13-49.8c-8.2-21.6-16.5-56.5-27.5-76.9c-5.7-10.7-21.1-24.2-32-29.4
					c-8.2-3.9-20-8.8-29-8c-28.6,2.6-54.4,20.9-70,44.9s-9.4,59-9.3,87.7l-5.1,53.7C109.1,282.6,191,272.8,237.1,216.8L237.1,216.8z
					"/>
				<path class="st2" d="M28,212.1c-11.6-12.5-18.3-27.8-22.7-43.8C-6.3,125.9,1.2,86.9,27.7,51.9C48,25.1,75.1,8.7,108,2.5
					c39.7-7.4,75.9,1.6,107.2,26.6C241.4,50,258,77.3,263.1,111c2.8,18.6,2.6,36.9-2.9,55c-4.7-1.4-5.8-5.6-7.6-9.3
					c0-2.4,1.7-4.1,2.4-6.2c0.8-2.4,1.3-4.9-0.9-6.9c-1.9-1.7-3.8-0.5-5.6,0.4c-1.1,0.7-2.5,1.1-3.8,0.9c-8-5.3-11.9-14.4-19.5-20.2
					c-0.6-0.4-0.9-1-1-1.7c0.5-7.3-3.7-11-10-13.4c-2.5-0.9-3.1-3.7-4.1-6c-2.7-5.9-6.6-10.3-13.7-10.2c-4.2,0-5.9-2.9-7-6.2
					c-6.2-18.2-19.3-29.8-36-38.4c-7.9-4.1-16.9-5.4-25.6-3.5c-8.4,1.6-16.9,3.2-24.6,7.1c-1.4,0.7-3,1-4.6,0.9
					c-15.2-7.2-21.3-6.2-33.5,5.9c-3.6,3.5-7.1,5.6-12.5,4.9c-6.2-0.8-9.2,4.1-6,9.6c2.5,4.4,2.2,7.9-0.1,11.9
					c-5.8,10.3-8.2,20.9-2.1,32c0.8,6.1-0.9,12-1.3,18.1c-0.6,7.4,0.5,14.8,3.1,21.8c1.3,3.4,0.4,6.1-0.5,9.5
					c-2.4,9-6.4,18.2-6.9,27C38.4,203.2,34.1,207.6,28,212.1z"/>
				<path class="st3" d="M28,212.1c0.1-0.2,0.2-0.4,0.3-0.6c5.1-6.1,8.8-11.8,8.9-21c0.1-6.6,2.6-15.1,5.4-21.1
					c3.5-7.4,1.1-12.3-0.4-18.3c-2.8-11.4,0.1-22.5,1-33.8c8.6,2,14.7-2,19.9-8.3c6.6-8,14-15.2,20.4-23.5
					C91,75.8,96.7,65.3,98.4,53c11.1-5.6,23.1-9,35.5-10c13.4-1.3,23.9,5.5,33.9,12.8c11.4,8.2,19.8,18.8,23.7,32.6
					c0.6,2,1.1,4,4.5,3.7c7.5-0.5,12.8,3.2,15.4,10.3c1.4,3.7,2.6,6.6,7.3,7.5c3.4,0.7,6.9,3.4,6.8,7.5c-0.3,9.2,8.8,12,12.4,18.7
					c1.4,2.7,5.1,5.2,7,8.4c-1.6,5.9-3.6,11.6-9.3,15c-9.4-10.1-17.5-21.2-27-31.2c-2.5-6.4-5.5-11.3-12.8-14.7
					c-5.2-2.4-10.2-6.1-15.8-8.8c-14.8-7.2-30.7-6.1-46.3-7.8c-13.6-1.4-27.6,0.5-40.5-5.6c-3.8-1.8-3.4,2.4-3.9,4.3
					c-4.4,17-10.7,33.4-18.7,49.1c-0.6,1.5-1.3,2.9-2.2,4.2c-6.5,8.2-9,17.6-9.2,27.8c-1.7,4.2-3,8.4-2.4,13
					c0.1,1.3-0.1,2.7-0.6,3.9c-2.9,7.7-5,15.6-7.3,23.4c-2.1,7-4.9,8.3-11.2,7.1C34.6,220.2,29.9,217.3,28,212.1z"/>
				<path class="st2" d="M208.6,128.3c12,7.6,18.9,19.8,27.4,30.6c1,4.4-3.3,7-3.8,11c-0.3,2.8-2.5,5.9,0.4,8.1
					c3.4,2.5,4.9-1.7,7.2-2.9c1.5-0.6,3.3-0.1,4.2,1.3c2.7,3.6,6.9,4.9,10.6,7.1c-4.7,11.1-10.6,21.6-19.4,31.6
					C228.6,184.6,216.1,157.2,208.6,128.3z"/>
				<path class="st4" d="M161.3,167.7c-0.1,3.1-1.9,6.7-4.9,9.6c-7.1,7.2-16.3,12.1-26.4,13.9c-5.9,1.1-12.1-2-13.5-6.4
					c-1.6-4.9,1-10.6,7.3-12.7c8.4-2.8,15.7-7.4,23.4-11.6C155.4,156.1,161.2,159,161.3,167.7z"/>
				<path class="st4" d="M97.3,154.1c-7.1,0.2-11.8-7.1-8.9-14.4c2.6-6.5,7.2-12.1,13-16.1c6.3-4.5,12.4-2.2,14.6,5.2
					C118.5,137.3,106.4,153.8,97.3,154.1z"/>
				<path class="st4" d="M172.1,128.5c0.2,6.4-8.1,11.7-14.8,9.2c-4.4-1.7-8.4-4.4-11.5-8c-4.7-5.3-3.4-12.3,2.6-15.3
					C156,110.7,171.8,120.1,172.1,128.5z"/>
				<path class="st5" d="M37.7,224.3c7-0.8,12.2-7.4,11.6-16c-0.4-2.6,0.4-5.2,2.1-7.1c2.8-3.3,4.1-7.7,3.5-12
					c-0.9-5.3,0.9-8.9,4.2-12.4c0,8.5,1,17.1-0.2,25.5c-1.6,11.9-1.3,24-4.2,36C47.6,235.2,43.6,228.5,37.7,224.3z"/>
				<path class="st3" d="M254.6,183.4c-7.1,1.4-9.7-5.1-14.3-8.1c-2.1-8,2.6-16.2,10.6-18.4c0.8-0.2,1.6-0.4,2.4-0.4l6.9,9.5
					C260.3,172.4,255,177.1,254.6,183.4z"/>
				<path class="st6" d="M98.4,53c2.2,14.6-7.2,24.5-14.7,34.9c-7.1,9.8-15.8,18.5-24.2,27.1c-4.7,4.8-10.1,6.7-16.3,2.4
					c-8.4-11.2-3.4-21.8,1.5-32.3c1.7-3.6,4.3-6.5,0-10.5c-2.7-2.5-2.3-6.7,0.2-9.9c2-3,5.9-4,9.1-2.5c4,1.9,5.7-0.2,7.8-2.6
					c6.2-6.9,13.1-12.3,23-12.7C90.6,46.7,95.2,48.2,98.4,53z"/>
				<path class="st7" d="M253.3,156.5c-8.2,3.6-12.2,10.1-13,18.8c-1.5,3.5-3.6,7.1-7.9,5.6c-4.5-1.6-2.9-5.8-2.4-9.3
					c0.7-4.9,3.2-8.8,6-12.7c3.5-4.5,5-10.2,9-14.3c1-0.9,2.1-1.6,3.2-2.4c2.1-1.2,4.2-2.9,6.7-1c2.5,1.9,2.8,4.4,2.6,7.2
					C257.2,151.7,254.9,153.9,253.3,156.5z"/>
			</g>
		</g>
	</g>
</g>
</svg>
