<svg xmlns="http://www.w3.org/2000/svg" xmlns:xlink="http://www.w3.org/1999/xlink" viewBox="0 0 264.63 263.92"><defs><style>.cls-1{fill:none;}.cls-2{clip-path:url(#clip-path);}.cls-3{fill:#dad0fc;}.cls-4{fill:#1d5974;}.cls-5{fill:#fefbf3;}.cls-6{fill:#fdd37a;}.cls-7{fill:#fcfaf2;}.cls-8{fill:#fcf9f2;}.cls-9{fill:#edefea;}.cls-10{fill:#f3f3ed;}.cls-11{fill:#cd4417;}</style><clipPath id="clip-path" transform="translate(-4.31 -2.46)"><circle class="cls-1" cx="135.45" cy="135.45" r="135.45"/></clipPath></defs><g id="圖層_2" data-name="圖層 2"><g id="圖層_1-2" data-name="圖層 1"><g class="cls-2"><path class="cls-3" d="M48,232.17c-23.07-20.79-37.24-46.5-41.9-77.12C.27,117.2,8.81,82.58,32.66,52.53,55.14,24.21,84.72,7.68,121,3.48c45.49-5.25,83.48,9.89,114.19,42.81,19.52,20.93,30.14,46.25,33,75,3,30.51-3.82,58.22-20.34,83.81-3.17-6.3-4.21-13.39-8.65-19.33-4.89-6.53-9.79-12.79-16.69-17.29-6.1-18.91-11.41-38.09-19.32-56.39-.1-16.69-10.35-27.69-21.62-38-4.94-4.54-5.18-5.92-.79-11.09,8.37-9.88,8.83-19.54,1.43-30.12-9.36-13.39-18.48-16.59-32.42-11.4S127.5,39,129.22,52.71c.64,5.13-1,7.53-6,8.44A84.8,84.8,0,0,0,87.6,76.87c-8,6-13.71,13.59-18.27,22.25-3,5.66-4.31,11.37-.5,17.27a6.29,6.29,0,0,1,.81,3.93c-4.35,13-4.68,26.34-4.63,39.86.07,15.66.87,31.36-.51,47-.33.82-.57,1.85-1.49,2.13-10.57,3.18-14,11.08-14.11,21.15A2.34,2.34,0,0,1,48,232.17Z" transform="translate(-4.31 -2.46)"/><path class="cls-4" d="M223.21,168.18c1.08.23,2.49.12,3.19.76,10.75,9.93,20.94,20.24,21.5,36.2-16.68,26.58-40,45.14-69.9,54.35-48.16,14.84-91.76,5.71-130-27.31-2-8,2.61-18.79,9.53-23.27,2.15-1.39,3.73-.68,5.57.08,7.36,3.48,13.76,8.54,20.57,12.89,27.2,17.34,54.14,15.19,81.28,0,20.92-11.69,37.33-28.11,51-47.49C217.77,171.78,219,168.17,223.21,168.18Z" transform="translate(-4.31 -2.46)"/><path class="cls-5" d="M223.21,168.18c-6.4,8.09-12.44,16.5-19.26,24.22-16.23,18.39-35.51,32.47-59.23,40-17.11,5.41-33.85,5-50.11-2.83C83.23,224.06,72.19,218,63.05,209c0-18.64.19-37.28-.13-55.91-.21-12,1.14-23.63,5.71-34.8a3.25,3.25,0,0,1,2.57-.55C94,123,109.7,111.79,123,95.28c2.39-3,4.43-6.24,7-9.07,4.07-4.45,5.51-4.39,9,1.34,6.42,10.55,15.36,17.86,27.48,20.22,12.44,2.42,24.75,7.1,37.81,3.94,4.73,5.76,6,13.05,8.17,19.78C216.35,143.62,221.76,155.34,223.21,168.18Z" transform="translate(-4.31 -2.46)"/><path class="cls-6" d="M204.3,111.71c-4.74,4.56-10.71,3.29-16.08,2.59-7.77-1-15.42-3.07-23-5-12.25-3-21.35-10.32-27.8-21.06-.88-1.47-1.14-3.49-3.33-4.2-7.08,7.73-11.88,17.55-20.4,24-13.38,10.19-27.67,17.12-45,10.15-5.65-5.15-4.85-11-2.13-17.26,9-20.76,25.94-32.24,46.6-39.27a28,28,0,0,1,5.9-1.42c6.39-.7,9.8-2,8.22-10.45-2.29-12.2,8.48-25.21,22.48-30.16,19.17-6.79,40.21,8.71,39.59,29.12a21.33,21.33,0,0,1-8.16,16.39c-3.17,2.61-2.9,4.38.33,6.62,7.56,5.24,12.64,12.76,18,20C203.77,97.82,205.05,104.52,204.3,111.71Z" transform="translate(-4.31 -2.46)"/><path class="cls-7" d="M224.22,179.5c3.19,7.27,1.35,13.87-3.27,19.37-12.49,14.89-28.45,25.48-45.26,34.92-3.09,1.73-4.87-.2-6.29-2-1.59-2,1-2.58,2.1-3.21,20.84-12.15,37.63-28.54,51.26-48.27C223,180,223.5,179.87,224.22,179.5Z" transform="translate(-4.31 -2.46)"/><path class="cls-8" d="M66,221.58c6.58,3.86,12.55,7.4,18.55,10.88,10.07,5.85,20.79,9.74,32.51,10.56,1.52.11,3.58-.21,3.8,1.88.31,2.82-2.32,2.24-3.86,2.53-4.74.9-9.53.15-14.12-.76a126.13,126.13,0,0,1-27.58-8.76C65.39,233.4,65.41,233.35,66,221.58Z" transform="translate(-4.31 -2.46)"/><path class="cls-9" d="M151.55,242.35c6-5.3,8.55-5.42,10.32-.58a4.23,4.23,0,0,1,0,3.13c-.62,1.08-1.95.66-3,.26s-2.13-.63-3.17-1C154.32,243.6,153,243,151.55,242.35Z" transform="translate(-4.31 -2.46)"/><path class="cls-10" d="M133.88,251.13c-2.21-.09-4.16-.22-4.42-2.45-.19-1.57.45-3.22,2.57-2.92s4.9.19,5.27,2.71C137.57,250.33,135.36,251,133.88,251.13Z" transform="translate(-4.31 -2.46)"/><path class="cls-4" d="M134,193.25c-7.76.07-12.56-2.06-13.75-8s2.92-9.65,7.77-11.24c8.05-2.63,15.22-6.6,22.33-11,4-2.48,8.88-4.75,12.87-.05,3.75,4.42,2.73,9.53-.55,13.65A46,46,0,0,1,134,193.25Z" transform="translate(-4.31 -2.46)"/><path class="cls-4" d="M120.17,133.72c.1,8.15-9.85,20.83-17.67,22.52-6.42,1.4-12.62-5.72-10.56-12.64A31.85,31.85,0,0,1,106.72,125C113.69,120.91,120.07,125.26,120.17,133.72Z" transform="translate(-4.31 -2.46)"/><path class="cls-4" d="M176.1,130.79c.13,6.28-8.17,11.59-14.9,9.05A28.18,28.18,0,0,1,149,130.76a9,9,0,0,1-1.19-9.5c1.56-3.47,4.57-5.32,8.54-5.55C164.25,115.26,176,124.11,176.1,130.79Z" transform="translate(-4.31 -2.46)"/><path class="cls-11" d="M146.23,56.27C156,59.63,166.73,64,176,71.43c2.46,2,3.51,5,2,7.9s-4.88,3-7.83,2.62a11.84,11.84,0,0,1-8.47-5.14c-3.92-6.3-9.41-9.15-16.64-9.26a7.56,7.56,0,0,1-2-.39c-3.42-1.06-6.83-2.88-6.42-6.73C137.11,55.93,141.35,56.51,146.23,56.27Z" transform="translate(-4.31 -2.46)"/></g></g></g></svg>