<?xml version="1.0" encoding="utf-8"?>
<!-- Generator: Adobe Illustrator 25.0.1, SVG Export Plug-In . SVG Version: 6.00 Build 0)  -->
<svg version="1.1" id="圖層_1" xmlns="http://www.w3.org/2000/svg" xmlns:xlink="http://www.w3.org/1999/xlink" x="0px" y="0px"
	 viewBox="0 0 265 266.9" style="enable-background:new 0 0 265 266.9;" xml:space="preserve">
<style type="text/css">
	.st0{clip-path:url(#SVGID_2_);}
	.st1{opacity:0.56;fill:#4AC8C2;}
	.st2{fill:#FEFBF3;}
	.st3{fill:#1D5974;}
	.st4{fill:#FDD37A;}
	.st5{fill:#CD4417;}
	.st6{fill:#003A4A;}
</style>
<g id="圖層_2_1_">
	<g id="圖層_1-2">
		<g>
			<g>
				<defs>
					<circle id="SVGID_1_" cx="132.8" cy="131.4" r="135.4"/>
				</defs>
				<clipPath id="SVGID_2_">
					<use xlink:href="#SVGID_1_"  style="overflow:visible;"/>
				</clipPath>
				<g class="st0">
					<circle class="st1" cx="132.5" cy="132.5" r="132.5"/>
					<path class="st2" d="M237.3,217.6c-2.6-13.8-6.4-27.2-11.4-40.3c-8.2-21.6-16.5-56.5-27.5-76.9c-5.7-10.7-21.1-24.2-32-29.4
						c-8.2-3.9-19.9-8.8-29-8c-28.6,2.6-54.4,20.8-70.1,45s-9.4,59-9.3,87.7l-4.3,45.7C111.6,283.1,191.9,272.7,237.3,217.6
						L237.3,217.6z"/>
					<path class="st3" d="M180.5,84.6c-0.9,0-2.1-0.2-2.6,0.2c-5,4.6-16.9,0.9-12.8,16.6c3.8,14.7-20.4,28.1-36.1,22.3
						c-3.5-1.3-6.8-5.5-10.8-1.6c-4,4-2.5,6,1.4,10.1c3.5,3.7-14.7,23.3-23,24.7c-3,0.5-6.5,1.1-9.3,0.1c-8.8-2.9-16.2-2.8-22.1,5.7
						c-2,2.9-5.5,2.5-8.7,2.1c-1-3.9,0.8-7.2,2.3-10.6c11.5-18.4,24.4-35.3,47.1-41c4.8-1.3,9-4.1,12.1-8.1
						c13.3-16.6,32.4-22.9,51.4-29.2C176.3,74.7,180.6,76.7,180.5,84.6z"/>
					<path class="st4" d="M127.3,35.2c-15.9-0.3-32.9,9.1-44,19.9c-12,11.8-19,27.4-20.8,44c-0.2,1.1,0.1,2.3,0.8,3.2
						c0.5,2.7,3,4.4,5.7,4c0.6-0.1,1.1-0.3,1.6-0.6c0.3,0.1,0.7,0.1,1,0.2c8.4,1,16.5-5.9,22.3-11c8.6-7.5,15.9-16.2,24-24.2
						l7.4-5.3c6.1-4.3,16.4-9.3,16.4-18C141.8,39.7,134.2,35.4,127.3,35.2z M130.3,45.8c1.1,0.7,1.4,1.4,1.2,2.2
						C131.2,47.1,130.8,46.3,130.3,45.8L130.3,45.8z"/>
					<path class="st5" d="M58.4,104.6c8.6-5.8,18.5-11.8,30-14.8c3-0.8,6.1,0.2,7.5,3.1s-0.5,5.7-2.6,7.8c-2.4,2.5-5.7,3.9-9.2,3.7
						c-7.4-0.6-13,2.1-17.3,7.8c-0.4,0.5-0.9,1-1.5,1.4c-2.9,2.1-6.4,3.8-9.2,1.1C52.7,111.7,55.7,108.7,58.4,104.6z"/>
					<path class="st6" d="M210.7,166c-1.8-6.1-4-14-9.7-17.7c-5.4-3.5-12.2-2.4-18.1-1.5c-8,1.3-16,2.9-23.9,4.8l-3.6,0.9
						c-0.6-0.7-1.2-1.4-1.8-2.1c-0.8-2.5-2.8-4.5-5.2-5.3c-1.1-1-2.5-1.7-4-2c-0.3-0.1-0.6-0.3-0.9-0.4c-1.3-0.4-2.7-0.4-4-0.2
						c-3.1,0.2-6.1,1.1-8.8,2.6c-1,0.5-2,1-3.1,1.6c-7.4,3-12.7,9.6-12,17.5c-3.8,1.3-7.6,2.7-11.4,4.2c-3,0.5-5.9,1.4-8.8,2.5
						c-1.2,0.5-2.4,1-3.6,1.5l-3.5,1c-0.8,0.2-1.6,0.7-2.1,1.4c-2.6,1.2-4.7,3.4-5.9,6.1c-2.3,5.4-0.6,11.3,0.9,16.6
						c2.7,10.2,4.9,20.7,8.9,30.4c0.5,2.6,1.6,5.1,3.3,7.1c0.2,0.5,0.5,0.9,0.8,1.4c0.4,0.7,1,1.3,1.8,1.7c0.5,0.6,1.1,1.1,1.8,1.4
						c0.3,0.7,0.6,1.4,1.1,1.9c2.5,2.8,6.4,1.7,9.6,1.2c9.9-1.5,19.7-3.4,29.5-5.8c0.8-0.2,1.6-0.4,2.4-0.6c1.4-0.3,2.9-0.6,4.3-1
						c11-2.7,21.8-6.3,32.3-10.8c5.1-2,10.2-4.1,15.2-6.4c0.6-0.3,1.2-0.7,1.6-1.2c5.2-2.3,10.7-4.9,14.7-8.7c5-4.9,5.9-12,5.8-18.7
						C214.2,181.7,213,173.7,210.7,166z"/>
					<path class="st3" d="M169.6,190.3c0,15.5-11.1,27.8-25,27.7c-11.2-0.1-23.1-11.2-23.4-21.6c-0.4-14.8,12.6-28.3,26.9-28.1
						C161.4,168.4,169.6,176.9,169.6,190.3z"/>
					<path class="st3" d="M118.9,184.7c-2.8,7.1-7.3,10.3-14.1,10.2c-7.7-0.1-9-5-8.3-11c0.7-6.7,5.2-9.3,11.4-8.8
						S117,179.9,118.9,184.7z"/>
					<path class="st3" d="M195.4,168.6l4.2,0.1C198.1,168.5,196.7,168.5,195.4,168.6z"/>
					<path class="st3" d="M246.4,205.3c-9.8-4.3-15-12.6-19.1-20c-4.5-8.1-11.3-17.5-23.5-20.5l5.1,4.1l-9.3-0.2
						c2.1,0.2,4.1,0.7,6,1.5c-3.3,0.2-6.6,1-9.6,2.3l5.7,1.4c-3.9,0.5-6.8,2.5-7.6,5c4.8-4.4,17.8-1,23.5,4.5s6.5,11.9,8.2,18
						c1.9,6.7,5.5,12.8,10.4,17.7C239.8,214.7,243.2,210.1,246.4,205.3z"/>
					<path class="st3" d="M86.4,193.9l4.4-1C89.3,193.1,87.8,193.4,86.4,193.9z"/>
					<path class="st3" d="M86.2,201l5.5-3.1c-3.6-1-7.4-1.2-11.2-0.8c1.8-1.4,3.7-2.4,5.8-3.2l-9.9,2.3l3.8-6.3
						c-11.9,6.4-15.4,19.8-16.9,31.1c-1,7.4-2.5,15.6-6.6,22.5c4.6,3.2,9.5,6,14.5,8.6c0.4-3.6,0.5-7.3,0.2-11
						c-0.6-8.1-2.3-16.4,1.6-24.6s16.4-15.3,23.3-10.8C94.4,202.7,90.5,200.9,86.2,201z"/>
				</g>
			</g>
		</g>
	</g>
</g>
</svg>
