<svg xmlns="http://www.w3.org/2000/svg" viewBox="0 0 265 267.95"><defs><style>.cls-1{fill:#a4e8fd;}.cls-2{fill:#fefbf3;}.cls-3{fill:#fdd37a;}.cls-4{fill:#1d5974;}.cls-5{fill:#f71156;}.cls-6{fill:#f81156;}.cls-7{fill:#cd4417;}</style></defs><g id="圖層_2" data-name="圖層 2"><g id="圖層_1-2" data-name="圖層 1"><circle class="cls-1" cx="132.5" cy="132.5" r="132.5"/><path class="cls-2" d="M240.72,214c-.05-.11-.09-.22-.13-.33-8.21-21.64-16.51-56.51-27.47-76.89-5.72-10.65-21.05-24.21-32-29.4-8.21-3.91-20-8.83-29-8-28.58,2.62-54.4,20.84-70.06,44.9s-9.41,59-9.32,87.73l-2,21.11a135.55,135.55,0,0,0,170-39.12Z"/><path class="cls-3" d="M224.39,93.56c1.69-5.7-.94-11.21-4.92-15.24-5.26-5.32-12.6-8.26-20.26-9.52,2.71-6.62,1-14.15-3.42-19.74-12.22-15.32-33.8-10.34-48.27-1.69-4,2.41-7.86,5.14-11.71,7.84-2.76,1.94-8.11,7-11.84,5.4-2.81-1.21-1.47-6.6-1.93-9.2a11.68,11.68,0,0,0-5.4-8.21c-6.81-4.05-15.86-.2-22.16,3.14A59.47,59.47,0,0,0,75.11,62.68,5.15,5.15,0,0,0,74,66.59a5.43,5.43,0,0,0-.74,2.29,3.89,3.89,0,0,1-1.09,2.27,5.94,5.94,0,0,0-3,.08c-15.09,4.21-32,14.61-39.21,29.12-3.7,7.46-2.3,15.75,4.06,21.29a23.23,23.23,0,0,0,11.38,5.18,36.48,36.48,0,0,0-7.89,10.12c-4.24,7.59-8.26,17.82-2.21,25.63a14.54,14.54,0,0,0,2.26,2.31,14.52,14.52,0,0,0,.76,2.28c6,13.48,24,6.59,33.44-1.33,8.75,4.47,20.44.72,26.39-7.08,7.39-9.7,4.89-22.5-1-32.42,16.47-5.49,38.51-3.76,44.26-23.88a21,21,0,0,0,.7-3.65,63.12,63.12,0,0,0,8.34,1.67A24.7,24.7,0,0,0,163.91,99c.54-.07,1.07-.16,1.6-.26,0,.16,0,.33,0,.49,0,4.53,2.5,8.95,5.36,12.32,6.1,7.21,15.25,11,24.35,12.61,6.71,1.21,15.35,1.61,19.22-3.89,3.57-2.07,5.34-6.44,5.41-10.61.06-3.35-1.52-6.59.29-9.53C221.57,97.8,223.55,96.4,224.39,93.56ZM85.05,120.11c-.3-.42-.59-.81-.87-1.16a5.76,5.76,0,0,0-2.37-1.72c1.15-.31,2.33-.66,3.5-1.07a19.29,19.29,0,0,0,8.28-.78l.45.12.25.27a38.37,38.37,0,0,0-7.59,3.08A6.75,6.75,0,0,0,85.05,120.11Zm-.67,35.83.3-.6a7.87,7.87,0,0,0,1.2-.12A11.44,11.44,0,0,1,84.38,155.94Zm6.79-7.19a18.32,18.32,0,0,0-.67-10.49l.09-.57A16.74,16.74,0,0,1,91.17,148.75Zm22-78.55c0-.2,0-.39,0-.59a25.71,25.71,0,0,0,.93-3,11.51,11.51,0,0,0,2.4,2.44c.16.12.33.23.5.34A7.74,7.74,0,0,0,113.17,70.2Zm4.17,40.41c0-.15.09-.29.13-.44a21,21,0,0,0,2.13-.34C118.85,110.11,118.1,110.37,117.34,110.61Zm69.27-42.76c.71-2,1.8-3.92,1.65-6.4-.25-4.25-3.25-7.47-7-9.93a14.18,14.18,0,0,1,6.29,4.84C190.07,59.89,189.86,65.6,186.61,67.85Zm22.23,30a11.32,11.32,0,0,0-.43,1.48,2.9,2.9,0,0,1-.33-2.92c.76-1.89,3.3-4,5.31-5.69C212.65,93.07,209.82,95.19,208.84,97.81Z"/><path class="cls-4" d="M230.62,126.33c-1.86-4.26-5.05-8.17-10-7.78-5.3.42-7.74-1.92-9.77-6.09a39.31,39.31,0,0,0-4.46-6.76c-19-24.36-42.93-37.43-74.78-31.67-12,2.17-22,8.78-32.64,14.33C76.85,99.9,63.74,118,57.38,141.47c-.64,2.34-1.3,4.07-3.47,5.32-4.84,2.8-7,7.32-8.13,12.64-1.46,6.72-1.11,13.5-.74,20.19,1,18.62,2.21,17.66,19.67,20.76,1.9.34,4-.36,6-.57,5.34-.49,8.88-3.25,9.9-8.55a79.64,79.64,0,0,0,1.77-20,80.84,80.84,0,0,0-6.14-26.91c-1.65-3.79-1-7.4.54-11.1,9.76-23.9,43-49.81,78.53-43.27a63.07,63.07,0,0,1,32.75,16.93A84.56,84.56,0,0,1,199,120.15q1.25,1.84,2.42,3.74c1.13,1.82,1,4,.55,6a47.9,47.9,0,0,0-.64,15.48c.61,4.83,2.34,9,3.85,13.61,1.74,5.27,2.15,11.6,8.12,13.88,3.39,1.31,6.71.35,9.83-1.14s6.26-2.58,8.65-5a16.31,16.31,0,0,0,4.48-10.79A66.43,66.43,0,0,0,230.62,126.33Z"/><path class="cls-5" d="M77.58,170.07c0,6.25,0,11,0,15.67,0,1.9-.25,4-2.42,4.16a3.93,3.93,0,0,1-4.43-3.2c-2.22-11.35-1.23-22.82-1.24-34.25,0-1.8,1.5-2.73,3.24-2.78,2.52-.07,3.64,1.49,3.79,3.79C76.93,159.51,77.29,165.55,77.58,170.07Z"/><path class="cls-6" d="M218.66,154.85c0,2.26.09,4.51,0,6.76s-.69,4.12-3.29,4.36-3.69-1.45-4-3.66c-1.14-8.69-2.19-17.39-4.43-25.9a3.21,3.21,0,0,1,2.6-4.09c2.88-.69,5,.83,5.89,3.37A49.68,49.68,0,0,1,218.66,154.85Z"/><path class="cls-7" d="M152.35,49.16c10.31.63,21.84,2,32.73,6.64,2.9,1.24,4.73,3.88,4,7.08s-3.88,4.24-6.84,4.63a11.84,11.84,0,0,1-9.53-2.69c-5.46-5-11.52-6.29-18.51-4.46a7.56,7.56,0,0,1-2,.15c-3.58-.1-7.35-.95-8-4.77C143.48,51.29,147.72,50.71,152.35,49.16Z"/><path class="cls-4" d="M144.79,221.05c-7.75.07-12.56-2.06-13.74-8s2.91-9.65,7.77-11.24c8-2.63,15.22-6.6,22.32-11,4-2.48,8.88-4.76,12.87-.05,3.75,4.42,2.74,9.53-.55,13.65A46,46,0,0,1,144.79,221.05Z"/><path class="cls-4" d="M130.93,161.52c.09,8.15-9.86,20.83-17.67,22.52-6.42,1.39-12.63-5.72-10.57-12.64a31.92,31.92,0,0,1,14.78-18.58C124.44,148.71,130.83,153.05,130.93,161.52Z"/><path class="cls-4" d="M186.85,158.59c.13,6.28-8.17,11.59-14.9,9a28.23,28.23,0,0,1-12.24-9.08,9,9,0,0,1-1.2-9.5c1.57-3.47,4.57-5.32,8.55-5.55C175,143.05,186.71,151.91,186.85,158.59Z"/></g></g></svg>