<svg xmlns="http://www.w3.org/2000/svg" xmlns:xlink="http://www.w3.org/1999/xlink" viewBox="0 0 265 266.85"><defs><style>.cls-1{fill:none;}.cls-2{clip-path:url(#clip-path);}.cls-3{fill:#acfdc7;}.cls-4{fill:#fefbf3;}.cls-5{fill:#1d5974;}.cls-6{fill:#fdd37a;}.cls-7{fill:#cd4417;}.cls-8{fill:#488ea1;}</style><clipPath id="clip-path" transform="translate(-2.64 -4.05)"><circle class="cls-1" cx="135.45" cy="135.45" r="135.45"/></clipPath></defs><g id="圖層_2" data-name="圖層 2"><g id="圖層_1-2" data-name="圖層 1"><g class="cls-2"><circle class="cls-3" cx="132.5" cy="132.5" r="132.5"/><path class="cls-4" d="M239.92,221.68a241.41,241.41,0,0,0-11.37-40.34c-8.22-21.64-16.52-56.51-27.47-76.89-5.73-10.65-21.06-24.21-32-29.4-8.21-3.91-19.95-8.83-29-8C111.51,69.67,85.69,87.89,70,112s-9.41,59-9.32,87.73l-4.34,45.74a135.44,135.44,0,0,0,183.55-23.74Z" transform="translate(-2.64 -4.05)"/><path class="cls-5" d="M183.18,88.61c-.89,0-2.12-.25-2.63.23-5,4.62-16.87.91-12.78,16.59,3.83,14.67-20.44,28.11-36.06,22.29-3.51-1.31-6.78-5.53-10.8-1.57s-2.51,6,1.4,10.15c3.51,3.72-14.71,23.27-23,24.72-3,.53-6.52,1.06-9.32.13-8.77-2.9-16.25-2.84-22.06,5.68-2,2.87-5.54,2.48-8.71,2.11-1-3.92.75-7.25,2.31-10.62,11.54-18.41,24.39-35.31,47.06-41a22.43,22.43,0,0,0,12.06-8.08C133.93,92.69,153,86.39,172,80.05,178.91,78.76,183.27,80.78,183.18,88.61Z" transform="translate(-2.64 -4.05)"/><path class="cls-6" d="M129.9,39.27C114,39,97,48.33,85.92,59.16c-12,11.76-19,27.4-20.83,44a4.2,4.2,0,0,0,.84,3.23,4.91,4.91,0,0,0,7.31,3.38,8.68,8.68,0,0,0,1,.17c8.41,1,16.48-5.92,22.33-11,8.55-7.46,15.94-16.18,24-24.19l7.42-5.27c6.06-4.31,16.38-9.28,16.43-18C144.4,43.7,136.82,39.4,129.9,39.27Zm3,10.53c1.13.67,1.39,1.42,1.17,2.17a4.68,4.68,0,0,0-1.24-2.21Z" transform="translate(-2.64 -4.05)"/><path class="cls-7" d="M61,108.66C69.56,102.83,79.51,96.85,91,93.82c3-.8,6.11.16,7.53,3.12s-.47,5.72-2.57,7.84a11.75,11.75,0,0,1-9.17,3.73c-7.39-.61-13,2.1-17.35,7.83a7,7,0,0,1-1.51,1.36c-2.88,2.12-6.38,3.76-9.23,1.14C55.33,115.78,58.33,112.72,61,108.66Z" transform="translate(-2.64 -4.05)"/><path class="cls-8" d="M213.35,170.06c-1.79-6.12-4-14-9.7-17.68-5.44-3.46-12.16-2.42-18.15-1.46q-12,1.94-23.9,4.79l-3.64.89c-.61-.74-1.25-1.43-1.84-2.06a8.17,8.17,0,0,0-5.25-5.27,8.78,8.78,0,0,0-4-2,8.15,8.15,0,0,0-.95-.36,8.92,8.92,0,0,0-4-.17,21.72,21.72,0,0,0-8.8,2.58c-1,.5-2,1-3.06,1.64-7.43,3-12.68,9.58-12,17.46-3.84,1.29-7.62,2.72-11.37,4.24a41.7,41.7,0,0,0-8.75,2.52c-1.18.47-2.41,1-3.57,1.52l-3.5,1a4.16,4.16,0,0,0-2.13,1.4,11.73,11.73,0,0,0-5.87,6.09c-2.26,5.37-.57,11.3.87,16.65,2.72,10.17,4.93,20.67,8.93,30.44A15.73,15.73,0,0,0,96,239.4c.25.47.5.94.76,1.4a4,4,0,0,0,1.77,1.7,4.29,4.29,0,0,0,1.79,1.41,5.81,5.81,0,0,0,1.14,1.92c2.51,2.84,6.39,1.71,9.61,1.21,9.89-1.53,19.73-3.43,29.45-5.81.79-.19,1.58-.41,2.37-.61,1.45-.3,2.9-.61,4.34-1a203.24,203.24,0,0,0,32.27-10.83q7.68-3,15.24-6.37a4,4,0,0,0,1.57-1.2c5.23-2.34,10.73-4.86,14.71-8.72,5-4.89,5.88-12,5.84-18.7A86.3,86.3,0,0,0,213.35,170.06Z" transform="translate(-2.64 -4.05)"/><path class="cls-5" d="M172.28,194.37c0,15.5-11.1,27.82-25,27.66-11.2-.14-23.13-11.16-23.38-21.61-.36-14.76,12.64-28.34,26.91-28.15C164,172.45,172.27,181,172.28,194.37Z" transform="translate(-2.64 -4.05)"/><path class="cls-5" d="M121.52,188.77c-2.85,7.1-7.28,10.28-14.14,10.19-7.69-.09-9-5-8.31-11,.72-6.73,5.16-9.29,11.44-8.83S119.66,184,121.52,188.77Z" transform="translate(-2.64 -4.05)"/><path class="cls-5" d="M198,172.64l4.16.1A22.41,22.41,0,0,0,198,172.64Z" transform="translate(-2.64 -4.05)"/><path class="cls-5" d="M249,209.32c-9.83-4.31-15-12.65-19.08-20-4.5-8.09-11.27-17.5-23.53-20.49l5.06,4.11-9.32-.23a24.46,24.46,0,0,1,6,1.49,29.6,29.6,0,0,0-9.61,2.29l5.71,1.43c-3.86.53-6.8,2.46-7.63,5,4.8-4.35,17.78-1,23.48,4.52s6.52,11.91,8.22,18a40.91,40.91,0,0,0,10.36,17.69A136.86,136.86,0,0,0,249,209.32Z" transform="translate(-2.64 -4.05)"/><path class="cls-5" d="M89,198l4.4-1A19.21,19.21,0,0,0,89,198Z" transform="translate(-2.64 -4.05)"/><path class="cls-5" d="M88.85,205.07,94.37,202a30.18,30.18,0,0,0-11.18-.82A20.84,20.84,0,0,1,89,198l-9.86,2.31L82.91,194C71,200.42,67.56,213.84,66,225.09c-1,7.41-2.47,15.63-6.56,22.49a134,134,0,0,0,14.49,8.58,54.62,54.62,0,0,0,.23-11c-.62-8.08-2.32-16.4,1.56-24.62s16.4-15.3,23.27-10.81C97.09,206.72,93.18,204.91,88.85,205.07Z" transform="translate(-2.64 -4.05)"/></g></g></g></svg>