<svg xmlns="http://www.w3.org/2000/svg" viewBox="0 0 93.67 73.15"><defs><style>.cls-1{fill:#ff2181;}</style></defs><g id="圖層_2" data-name="圖層 2"><g id="NO"><path class="cls-1" d="M58.78,3.82a4.62,4.62,0,0,0-3-2.42C38.41-3.55,20.84,5.18,10.16,18.87-.27,32.22-5.94,52.94,9.57,64.79c13.66,10.44,34.22,9.74,50,5.27C77.36,65,93.73,50.58,93.67,30.77,93.61,12.85,75.77-1.63,58.78,3.82ZM56.07,60.63c-11.56,3.12-25.85,4.12-36.86-1.53-4.91-2.52-8.82-6.47-9.41-12.16-.72-6.86,2.76-14.06,6.49-19.61C24.24,15.51,38.71,6.94,53.1,11l.16,0a5.21,5.21,0,0,0,7.14,2.76C72,8.15,83.9,20.21,83.65,31.5,83.31,46.82,69.63,57,56.07,60.63Z"/><path class="cls-1" d="M32.65,20.58c-6.43,0-6.44,10,0,10S39.1,20.58,32.65,20.58Z"/><path class="cls-1" d="M56.63,20.58c-6.44,0-6.45,10,0,10S63.07,20.58,56.63,20.58Z"/><path class="cls-1" d="M31.34,50.93C39,38,58.85,36.62,68.63,47.72c4.26,4.84,11.31-2.26,7.07-7.07-14.08-16-42.23-12.91-53,5.24C19.42,51.43,28.06,56.47,31.34,50.93Z"/></g></g></svg>